<?xml version="1.0" standalone="no"?><!DOCTYPE svg PUBLIC "-//W3C//DTD SVG 1.1//EN" "http://www.w3.org/Graphics/SVG/1.1/DTD/svg11.dtd"><svg t="1595395503729" class="icon" viewBox="0 0 1024 1024" version="1.1" xmlns="http://www.w3.org/2000/svg" p-id="5925" xmlns:xlink="http://www.w3.org/1999/xlink" width="200" height="200"><defs><style type="text/css"></style></defs><path d="M881.777778 492.088889c10.42963-21.807407 27.496296-61.62963 41.718518-93.866667l48.355556 27.496297 23.703704-6.637038-61.62963-48.355555h-56.888889l0.948148-3.792593 61.62963-4.74074c3.792593-9.481481 4.740741-12.325926 4.740741-12.325926h-71.111112l-72.059259 91.97037c-1.896296-1.896296-4.740741-2.844444-6.637037-3.792593h-84.385185v14.222223H201.007407c-7.585185 0.948148-15.17037 3.792593-21.807407 7.585185 2.844444 2.844444 6.637037 4.740741 12.325926 5.688889l-10.42963 28.444444c-8.533333-2.844444-17.066667-6.637037-22.755555-13.274074-38.874074 14.222222-62.577778 25.6-63.525926 52.148148 4.740741 20.859259 46.459259 29.392593 105.244444 32.237037h232.296297L417.185185 544.237037l6.637037-0.948148L678.874074 739.555556h95.762963L658.962963 606.814815l-2.844444-40.770371h47.407407v-29.392592h94.814815c7.585185 2.844444 15.17037 8.533333 20.859259 18.962963 30.340741-7.585185 59.733333-18.962963 86.281481-40.770371-8.533333-8.533333-15.17037-16.118519-23.703703-22.755555z m-211.437037-14.222222c5.688889 0 9.481481 3.792593 9.481481 9.481481s-3.792593 9.481481-9.481481 9.481482-9.481481-3.792593-9.481482-9.481482 3.792593-9.481481 9.481482-9.481481z m-358.4 0c5.688889 0 9.481481 3.792593 9.481481 9.481481s-3.792593 9.481481-9.481481 9.481482-9.481481-3.792593-9.481482-9.481482 3.792593-9.481481 9.481482-9.481481z m-32.237037 0c5.688889 0 9.481481 3.792593 9.481481 9.481481s-3.792593 9.481481-9.481481 9.481482-9.481481-3.792593-9.481482-9.481482 3.792593-9.481481 9.481482-9.481481z m64.474074 0c5.688889 0 9.481481 3.792593 9.481481 9.481481s-3.792593 9.481481-9.481481 9.481482-9.481481-3.792593-9.481482-9.481482 4.740741-9.481481 9.481482-9.481481z m33.185185 0c4.740741 0 9.481481 3.792593 9.481481 9.481481s-3.792593 9.481481-9.481481 9.481482-9.481481-3.792593-9.481482-9.481482 3.792593-9.481481 9.481482-9.481481z m32.237037 0c5.688889 0 9.481481 3.792593 9.481481 9.481481s-3.792593 9.481481-9.481481 9.481482-9.481481-3.792593-9.481481-9.481482 4.740741-9.481481 9.481481-9.481481z m32.237037 0c5.688889 0 9.481481 3.792593 9.481482 9.481481s-3.792593 9.481481-9.481482 9.481482-9.481481-3.792593-9.481481-9.481482 4.740741-9.481481 9.481481-9.481481z m33.185185 0c5.688889 0 9.481481 3.792593 9.481482 9.481481s-3.792593 9.481481-9.481482 9.481482-9.481481-3.792593-9.481481-9.481482 3.792593-9.481481 9.481481-9.481481z m32.237037 0c5.688889 0 9.481481 3.792593 9.481482 9.481481s-3.792593 9.481481-9.481482 9.481482-9.481481-3.792593-9.481481-9.481482 4.740741-9.481481 9.481481-9.481481z m33.185185 0c5.688889 0 9.481481 3.792593 9.481482 9.481481s-3.792593 9.481481-9.481482 9.481482-9.481481-3.792593-9.481481-9.481482 3.792593-9.481481 9.481481-9.481481z m32.237037 0c5.688889 0 9.481481 3.792593 9.481482 9.481481s-3.792593 9.481481-9.481482 9.481482-9.481481-3.792593-9.481481-9.481482 3.792593-9.481481 9.481481-9.481481z m32.237038 0c5.688889 0 9.481481 3.792593 9.481481 9.481481s-3.792593 9.481481-9.481481 9.481482-9.481481-3.792593-9.481482-9.481482 4.740741-9.481481 9.481482-9.481481z m33.185185 0c5.688889 0 9.481481 3.792593 9.481481 9.481481s-3.792593 9.481481-9.481481 9.481482-9.481481-3.792593-9.481482-9.481482 3.792593-9.481481 9.481482-9.481481z m73.007407 66.37037h84.385185c7.585185 2.844444 14.222222 8.533333 19.911111 18.962963-4.740741 8.533333-11.377778 15.17037-19.911111 18.014815H711.111111v-36.977778z m-503.466667-48.355556h-20.859259l10.42963-29.392592h17.066666l-6.637037 29.392592z m11.377778-29.392592h18.962963l-5.688889 28.444444h-19.911111l6.637037-28.444444z m213.333334-26.548148l252.207407-157.392593L720.592593 293.925926l-69.214815 113.777778-1.896297 31.288889H432.355556v0.948148z m460.8-96.711111h38.874074l36.029629-34.133334-11.377778-7.585185-63.525925 41.718519z" p-id="5926"></path></svg>